<svg xmlns="http://www.w3.org/2000/svg" width="64" height="64" shape-rendering="geometricPrecision" text-rendering="geometricPrecision" image-rendering="optimizeQuality" fill-rule="evenodd" clip-rule="evenodd" viewBox="0 0 640 640"><path d="M579.999 0H60C27 0 0 27 0 60v520c0 33 27 60 60 60h519.999c33 0 60-27 60-60V60c0-33-27-60-60-60zM473.143 165.876c-40.666-40.748-94.726-63.166-152.34-63.166-118.655 0-215.223 96.592-215.223 215.329 0 37.95 9.921 75.036 28.772 107.647l-30.59 111.604 114.178-29.93c31.489 17.138 66.887 26.21 102.863 26.21h.071c118.667 0 215.353-96.604 215.353-215.319 0-57.579-22.394-111.639-63.084-152.364v-.011zm-152.27 331.362c-32.185 0-63.662-8.67-91.135-24.98l-6.555-3.898-67.76 17.776 18.094-66.06-4.217-6.792c-18.06-28.43-27.425-61.347-27.425-95.221 0-98.706 80.28-179.057 179.093-179.057 47.776 0 92.812 18.697 126.58 52.477 33.744 33.827 52.359 78.768 52.359 126.639-.095 98.788-80.399 179.093-179.034 179.093v.023zm98.139-134.116c-5.339-2.705-31.831-15.65-36.756-17.469-4.89-1.842-8.516-2.752-12.166 2.693-3.52 5.363-13.878 17.54-17.032 21.154-3.141 3.555-6.26 4.04-11.61 1.347-5.374-2.693-22.784-8.41-43.312-26.717-15.98-14.292-26.787-31.938-29.953-37.288-3.177-5.315-.342-8.339 2.386-10.926 2.48-2.41 5.374-6.295 8.09-9.437 2.73-3.141 3.556-5.338 5.351-9 1.772-3.543.898-6.673-.449-9.413-1.346-2.693-12.153-29.221-16.523-39.993-4.335-10.524-8.823-9.06-12.142-9.272-3.166-.13-6.697-.13-10.288-.13-3.543 0-9.378 1.335-14.35 6.733-4.926 5.327-18.827 18.378-18.827 44.87 0 26.493 19.228 52.04 21.957 55.69 2.74 3.567 37.96 57.957 91.926 81.26 12.839 5.493 22.855 8.8 30.638 11.328 12.922 4.11 24.615 3.508 33.886 2.138 10.323-1.524 31.82-12.98 36.32-25.572 4.523-12.579 4.523-23.303 3.153-25.535-1.287-2.398-4.819-3.697-10.287-6.473l-.012.012z"/></svg>